<?xml version="1.0" standalone="no"?>
<!DOCTYPE svg PUBLIC "-//W3C//DTD SVG 20010904//EN"
 "http://www.w3.org/TR/2001/REC-SVG-20010904/DTD/svg10.dtd">
<svg version="1.0" xmlns="http://www.w3.org/2000/svg"
 width="914.000000pt" height="914.000000pt" viewBox="0 0 914.000000 914.000000"
 preserveAspectRatio="xMidYMid meet">
<metadata>
Created by potrace 1.14, written by Peter Selinger 2001-2017
</metadata>
<g transform="translate(0.000000,914.000000) scale(0.100000,-0.100000)"
fill="#000000" stroke="none">
<path d="M4328 9125 c-1 -2 -52 -6 -113 -10 -60 -4 -119 -9 -130 -11 -11 -2
-42 -6 -70 -9 -27 -3 -66 -7 -85 -10 -19 -3 -51 -8 -70 -11 -65 -9 -75 -11
-105 -17 -16 -4 -44 -9 -61 -12 -46 -7 -284 -63 -324 -75 -19 -6 -46 -13 -59
-16 -41 -8 -351 -113 -382 -129 -16 -9 -29 -13 -29 -10 0 3 -10 -1 -22 -9 -13
-8 -25 -15 -28 -15 -11 1 -88 -32 -210 -88 -30 -14 -56 -24 -56 -22 -1 2 -11
-5 -23 -15 -12 -11 -21 -16 -21 -12 0 4 -12 -1 -27 -11 -16 -10 -46 -27 -68
-38 -61 -30 -276 -155 -304 -176 -13 -10 -30 -19 -37 -19 -8 0 -14 -4 -14 -9
0 -5 -9 -13 -20 -16 -11 -3 -26 -12 -32 -18 -7 -7 -47 -35 -88 -62 -41 -28
-77 -52 -80 -55 -3 -3 -34 -28 -70 -55 -163 -124 -284 -231 -449 -395 -243
-242 -392 -422 -569 -685 -26 -38 -50 -71 -54 -73 -5 -2 -8 -10 -8 -18 0 -8
-4 -14 -10 -14 -5 0 -9 -3 -8 -7 1 -5 -14 -33 -33 -63 -20 -30 -39 -62 -42
-70 -4 -8 -17 -31 -29 -50 -40 -65 -170 -315 -174 -335 -1 -5 -18 -44 -37 -85
-34 -75 -49 -110 -51 -120 -1 -3 -16 -41 -33 -85 -32 -82 -82 -218 -89 -245
-2 -8 -15 -53 -29 -100 -29 -96 -29 -96 -45 -165 -6 -27 -13 -57 -15 -65 -14
-59 -45 -201 -50 -230 -3 -19 -10 -60 -15 -90 -5 -30 -12 -75 -15 -100 -3 -25
-10 -79 -15 -120 -25 -192 -34 -673 -16 -865 4 -44 9 -98 11 -120 3 -39 22
-183 31 -237 2 -16 6 -43 9 -60 3 -18 8 -44 10 -58 3 -14 7 -36 10 -50 3 -14
7 -36 10 -50 3 -14 7 -34 9 -45 2 -11 9 -40 16 -65 7 -25 13 -52 14 -60 9 -69
129 -446 180 -565 10 -22 24 -60 33 -85 24 -70 172 -371 248 -505 62 -110 229
-373 244 -385 3 -3 22 -27 41 -55 19 -27 38 -51 42 -53 4 -2 8 -8 8 -14 0 -6
8 -18 18 -27 10 -9 23 -23 28 -32 11 -19 67 -88 109 -134 17 -18 46 -53 65
-76 48 -59 310 -321 390 -389 35 -30 71 -62 80 -70 8 -8 36 -31 60 -50 25 -19
56 -45 70 -57 14 -13 28 -23 32 -23 3 0 14 -7 22 -16 57 -57 496 -344 526
-344 5 0 10 -3 12 -7 2 -5 32 -23 68 -41 126 -65 196 -99 240 -119 25 -11 61
-28 80 -37 85 -41 465 -181 550 -202 8 -2 85 -22 170 -44 85 -22 166 -41 180
-44 14 -2 66 -12 115 -20 50 -9 106 -19 125 -22 19 -2 49 -6 65 -9 17 -3 57
-7 89 -11 33 -3 69 -8 80 -10 153 -30 810 -23 1026 11 14 3 46 7 72 10 42 5
265 44 343 60 99 20 404 102 425 114 8 4 42 16 75 25 33 10 74 24 90 31 17 7
68 27 115 45 91 36 292 123 325 142 11 6 49 26 85 44 36 17 94 49 130 69 36
21 90 51 120 68 30 17 59 34 65 39 5 4 53 36 105 69 93 60 315 221 335 243 6
6 28 24 50 40 22 17 47 37 55 46 8 8 37 33 65 55 52 42 329 315 404 400 47 53
236 287 261 324 16 24 85 119 98 136 16 21 192 304 192 310 0 3 12 24 27 48
26 42 153 291 153 302 0 3 15 38 34 78 18 39 48 108 65 152 17 44 36 94 42
110 15 36 14 33 24 70 4 17 11 35 15 40 4 6 10 19 12 30 3 11 24 83 46 160 23
77 50 181 62 230 11 50 22 97 24 105 2 8 7 35 11 60 4 25 9 54 12 65 2 11 6
31 8 45 2 14 6 36 9 50 2 14 7 48 11 75 3 28 8 64 10 80 35 260 40 820 10
1028 -2 18 -7 53 -10 80 -12 115 -16 143 -20 157 -2 8 -7 33 -10 55 -3 23 -8
52 -10 65 -3 14 -8 41 -11 60 -3 19 -8 38 -10 41 -2 3 -6 20 -9 37 -10 56 -36
165 -62 257 -14 50 -26 97 -28 105 -12 54 -128 367 -186 500 -34 79 -184 376
-219 435 -16 28 -33 57 -37 65 -4 8 -14 26 -23 40 -70 103 -177 266 -185 282
-5 10 -13 18 -17 18 -5 0 -8 6 -8 14 0 8 -3 16 -8 18 -4 2 -43 50 -87 107 -44
56 -91 115 -105 131 -14 15 -45 51 -70 80 -92 110 -327 339 -481 470 -35 30
-66 57 -69 60 -3 3 -21 17 -40 30 -19 13 -39 30 -43 37 -4 7 -14 13 -22 13 -7
0 -15 4 -17 8 -3 9 -120 96 -198 147 -25 17 -46 33 -48 38 -2 4 -8 7 -14 7 -5
0 -29 14 -53 30 -50 34 -191 117 -275 162 -30 16 -59 34 -64 39 -6 5 -16 9
-23 9 -7 0 -31 11 -53 25 -22 14 -40 22 -40 19 0 -4 -6 -2 -12 4 -27 22 -323
147 -331 140 -2 -2 -10 2 -18 9 -12 9 -191 76 -239 88 -8 2 -62 18 -120 35
-58 17 -134 37 -170 46 -36 8 -73 17 -82 20 -10 2 -28 6 -40 9 -13 2 -43 9
-68 14 -25 6 -61 13 -80 16 -19 2 -46 7 -60 9 -54 9 -167 26 -205 30 -22 3
-62 7 -90 11 -27 3 -75 8 -105 11 -66 6 -606 14 -612 9z"/>
</g>
</svg>
